<svg xmlns="http://www.w3.org/2000/svg" viewBox="0 0 512 512">
  <defs>
    <linearGradient id="grad" x1="0%" y1="0%" x2="100%" y2="100%">
      <stop offset="0%" style="stop-color:#0ea5e9;stop-opacity:1" />
      <stop offset="100%" style="stop-color:#0284c7;stop-opacity:1" />
    </linearGradient>
  </defs>
  <rect width="512" height="512" rx="100" fill="url(#grad)"/>
  <g fill="white">
    <!-- Play button -->
    <polygon points="200,140 200,372 380,256" />
    <!-- Film strip decoration -->
    <rect x="80" y="100" width="30" height="30" rx="5"/>
    <rect x="80" y="150" width="30" height="30" rx="5"/>
    <rect x="80" y="200" width="30" height="30" rx="5"/>
    <rect x="80" y="332" width="30" height="30" rx="5"/>
    <rect x="80" y="382" width="30" height="30" rx="5"/>
    <rect x="402" y="100" width="30" height="30" rx="5"/>
    <rect x="402" y="150" width="30" height="30" rx="5"/>
    <rect x="402" y="200" width="30" height="30" rx="5"/>
    <rect x="402" y="332" width="30" height="30" rx="5"/>
    <rect x="402" y="382" width="30" height="30" rx="5"/>
  </g>
  <!-- AI sparkle -->
  <g fill="#fbbf24">
    <circle cx="420" cy="80" r="15"/>
    <polygon points="420,50 425,70 445,75 425,80 420,100 415,80 395,75 415,70"/>
  </g>
</svg>
